<?xml version="1.0" encoding="utf-8"?>
<!-- Generator: Adobe Illustrator 20.1.0, SVG Export Plug-In . SVG Version: 6.00 Build 0)  -->
<svg version="1.1" xmlns="http://www.w3.org/2000/svg" xmlns:xlink="http://www.w3.org/1999/xlink" x="0px" y="0px"
	 viewBox="0 0 2800 2800" style="enable-background:new 0 0 2800 2800;" xml:space="preserve">
<g id="Layer_2">
	<rect x="-83.2" y="-88.3" style="fill:#FFFFFF;" width="2966.4" height="2976.6"/>
</g>
<g id="Capa_4">
	<g>
		<g>
			<rect x="1204.7" y="858.6" style="fill:#FFFFFF;" width="390.6" height="390.6"/>
			<path style="fill:#3E3D43;" d="M1595.3,1259.2h-390.6c-5.5,0-10-4.5-10-10V858.6c0-5.5,4.5-10,10-10h390.6c5.5,0,10,4.5,10,10
				v390.6C1605.3,1254.7,1600.8,1259.2,1595.3,1259.2z M1214.7,1239.2h370.6V868.6h-370.6V1239.2z"/>
		</g>
		<g>
			<path style="fill:#FFFFFF;" d="M1468.9,1166h-137.8c-23.9,0-43.2-19.4-43.2-43.2V985c0-23.9,19.4-43.2,43.2-43.2h137.8
				c23.9,0,43.2,19.4,43.2,43.2v137.8C1512.1,1146.7,1492.8,1166,1468.9,1166z"/>
			<path style="fill:#3E3D43;" d="M1468.9,1176h-137.8c-29.4,0-53.2-23.9-53.2-53.2V985c0-29.4,23.9-53.2,53.2-53.2h137.8
				c29.4,0,53.2,23.9,53.2,53.2v137.8C1522.1,1152.1,1498.2,1176,1468.9,1176z M1331.1,951.8c-18.3,0-33.2,14.9-33.2,33.2v137.8
				c0,18.3,14.9,33.2,33.2,33.2h137.8c18.3,0,33.2-14.9,33.2-33.2V985c0-18.3-14.9-33.2-33.2-33.2H1331.1z"/>
		</g>
		<g>
			<path style="fill:#3E3D43;" d="M1289.8,868.6c-5.5,0-10-4.5-10-10v-46.9c0-5.5,4.5-10,10-10s10,4.5,10,10v46.9
				C1299.8,864.1,1295.3,868.6,1289.8,868.6z"/>
		</g>
		<g>
			<path style="fill:#3E3D43;" d="M1363.3,868.6c-5.5,0-10-4.5-10-10v-46.9c0-5.5,4.5-10,10-10s10,4.5,10,10v46.9
				C1373.3,864.1,1368.8,868.6,1363.3,868.6z"/>
		</g>
		<g>
			<path style="fill:#3E3D43;" d="M1436.7,868.6c-5.5,0-10-4.5-10-10v-46.9c0-5.5,4.5-10,10-10s10,4.5,10,10v46.9
				C1446.7,864.1,1442.2,868.6,1436.7,868.6z"/>
		</g>
		<g>
			<path style="fill:#3E3D43;" d="M1510.2,868.6c-5.5,0-10-4.5-10-10v-46.9c0-5.5,4.5-10,10-10s10,4.5,10,10v46.9
				C1520.2,864.1,1515.7,868.6,1510.2,868.6z"/>
		</g>
		<g>
			<path style="fill:#3E3D43;" d="M1289.8,1306.1c-5.5,0-10-4.5-10-10v-46.9c0-5.5,4.5-10,10-10s10,4.5,10,10v46.9
				C1299.8,1301.6,1295.3,1306.1,1289.8,1306.1z"/>
		</g>
		<g>
			<path style="fill:#3E3D43;" d="M1363.3,1306.1c-5.5,0-10-4.5-10-10v-46.9c0-5.5,4.5-10,10-10s10,4.5,10,10v46.9
				C1373.3,1301.6,1368.8,1306.1,1363.3,1306.1z"/>
		</g>
		<g>
			<path style="fill:#3E3D43;" d="M1436.7,1306.1c-5.5,0-10-4.5-10-10v-46.9c0-5.5,4.5-10,10-10s10,4.5,10,10v46.9
				C1446.7,1301.6,1442.2,1306.1,1436.7,1306.1z"/>
		</g>
		<g>
			<path style="fill:#3E3D43;" d="M1510.2,1306.1c-5.5,0-10-4.5-10-10v-46.9c0-5.5,4.5-10,10-10s10,4.5,10,10v46.9
				C1520.2,1301.6,1515.7,1306.1,1510.2,1306.1z"/>
		</g>
		<g>
			<path style="fill:#3E3D43;" d="M1642.2,953.7h-46.9c-5.5,0-10-4.5-10-10s4.5-10,10-10h46.9c5.5,0,10,4.5,10,10
				S1647.8,953.7,1642.2,953.7z"/>
		</g>
		<g>
			<path style="fill:#3E3D43;" d="M1642.2,1027.2h-46.9c-5.5,0-10-4.5-10-10s4.5-10,10-10h46.9c5.5,0,10,4.5,10,10
				S1647.8,1027.2,1642.2,1027.2z"/>
		</g>
		<g>
			<path style="fill:#3E3D43;" d="M1642.2,1100.6h-46.9c-5.5,0-10-4.5-10-10s4.5-10,10-10h46.9c5.5,0,10,4.5,10,10
				S1647.8,1100.6,1642.2,1100.6z"/>
		</g>
		<g>
			<path style="fill:#3E3D43;" d="M1642.2,1174.1h-46.9c-5.5,0-10-4.5-10-10s4.5-10,10-10h46.9c5.5,0,10,4.5,10,10
				S1647.8,1174.1,1642.2,1174.1z"/>
		</g>
		<g>
			<path style="fill:#3E3D43;" d="M1204.7,953.7h-46.9c-5.5,0-10-4.5-10-10s4.5-10,10-10h46.9c5.5,0,10,4.5,10,10
				S1210.2,953.7,1204.7,953.7z"/>
		</g>
		<g>
			<path style="fill:#3E3D43;" d="M1204.7,1027.2h-46.9c-5.5,0-10-4.5-10-10s4.5-10,10-10h46.9c5.5,0,10,4.5,10,10
				S1210.2,1027.2,1204.7,1027.2z"/>
		</g>
		<g>
			<path style="fill:#3E3D43;" d="M1204.7,1100.6h-46.9c-5.5,0-10-4.5-10-10s4.5-10,10-10h46.9c5.5,0,10,4.5,10,10
				S1210.2,1100.6,1204.7,1100.6z"/>
		</g>
		<g>
			<path style="fill:#3E3D43;" d="M1204.7,1174.1h-46.9c-5.5,0-10-4.5-10-10s4.5-10,10-10h46.9c5.5,0,10,4.5,10,10
				S1210.2,1174.1,1204.7,1174.1z"/>
		</g>
	</g>
	<g>
		<g>
			<g>
				<path style="fill:#3E3D43;" d="M1438.8,1677.5h-298c-5.5,0-10-4.5-10-10v-129.4c0-5.5,4.5-10,10-10h298c5.5,0,10,4.5,10,10
					v129.4C1448.8,1673.1,1444.3,1677.5,1438.8,1677.5z M1150.8,1657.5h278v-109.4h-278V1657.5z"/>
			</g>
			<g>
				<path style="fill:#3E3D43;" d="M1393,1612.8h-68.8c-5.5,0-10-4.5-10-10s4.5-10,10-10h68.8c5.5,0,10,4.5,10,10
					S1398.5,1612.8,1393,1612.8z"/>
			</g>
			<g>
				<path style="fill:#3E3D43;" d="M1207.4,1612.8h-12c-5.5,0-10-4.5-10-10s4.5-10,10-10h12c5.5,0,10,4.5,10,10
					S1212.9,1612.8,1207.4,1612.8z"/>
			</g>
			<g>
				<path style="fill:#3E3D43;" d="M1438.8,1807h-298c-5.5,0-10-4.5-10-10v-129.4c0-5.5,4.5-10,10-10h298c5.5,0,10,4.5,10,10V1797
					C1448.8,1802.5,1444.3,1807,1438.8,1807z M1150.8,1787h278v-109.4h-278V1787z"/>
			</g>
			<g>
				<path style="fill:#3E3D43;" d="M1393,1742.3h-68.8c-5.5,0-10-4.5-10-10s4.5-10,10-10h68.8c5.5,0,10,4.5,10,10
					S1398.5,1742.3,1393,1742.3z"/>
			</g>
			<g>
				<path style="fill:#3E3D43;" d="M1207.4,1742.3h-12c-5.5,0-10-4.5-10-10s4.5-10,10-10h12c5.5,0,10,4.5,10,10
					S1212.9,1742.3,1207.4,1742.3z"/>
			</g>
			<g>
				<path style="fill:#3E3D43;" d="M1438.8,1936.4h-298c-5.5,0-10-4.5-10-10V1797c0-5.5,4.5-10,10-10h298c5.5,0,10,4.5,10,10v129.4
					C1448.8,1932,1444.3,1936.4,1438.8,1936.4z M1150.8,1916.4h278V1807h-278V1916.4z"/>
			</g>
			<g>
				<path style="fill:#3E3D43;" d="M1393,1871.7h-68.8c-5.5,0-10-4.5-10-10s4.5-10,10-10h68.8c5.5,0,10,4.5,10,10
					S1398.5,1871.7,1393,1871.7z"/>
			</g>
			<g>
				<path style="fill:#3E3D43;" d="M1207.4,1871.7h-12c-5.5,0-10-4.5-10-10s4.5-10,10-10h12c5.5,0,10,4.5,10,10
					S1212.9,1871.7,1207.4,1871.7z"/>
			</g>
		</g>
		<g>
			<path style="fill:#3E3D43;" d="M1631.8,1742.3h-120c-5.5,0-10-4.5-10-10s4.5-10,10-10h120c5.5,0,10,4.5,10,10
				S1637.3,1742.3,1631.8,1742.3z"/>
		</g>
		<g>
			<path style="fill:#3E3D43;" d="M1630.6,1936.4h-52.2c-5.5,0-10-4.5-10-10v-388.3c0-5.5,4.5-10,10-10h52.2c5.5,0,10,4.5,10,10
				s-4.5,10-10,10h-42.2v368.3h42.2c5.5,0,10,4.5,10,10S1636.1,1936.4,1630.6,1936.4z"/>
		</g>
		<g>
			<path style="fill:#3E3D43;" d="M1630.6,1647.8h-52.2c-5.5,0-10-4.5-10-10s4.5-10,10-10h52.2c5.5,0,10,4.5,10,10
				S1636.1,1647.8,1630.6,1647.8z"/>
		</g>
		<g>
			<path style="fill:#3E3D43;" d="M1630.6,1840.4h-52.2c-5.5,0-10-4.5-10-10s4.5-10,10-10h52.2c5.5,0,10,4.5,10,10
				S1636.1,1840.4,1630.6,1840.4z"/>
		</g>
		<g>
			<path style="fill:#3E3D43;" d="M1644.9,1662.1c-13.4,0-24.3-10.9-24.3-24.3s10.9-24.3,24.3-24.3s24.3,10.9,24.3,24.3
				S1658.3,1662.1,1644.9,1662.1z M1644.9,1633.5c-2.4,0-4.3,1.9-4.3,4.3s1.9,4.3,4.3,4.3s4.3-1.9,4.3-4.3
				S1647.3,1633.5,1644.9,1633.5z"/>
		</g>
		<g>
			<path style="fill:#3E3D43;" d="M1644.9,1562.4c-13.4,0-24.3-10.9-24.3-24.3s10.9-24.3,24.3-24.3s24.3,10.9,24.3,24.3
				S1658.3,1562.4,1644.9,1562.4z M1644.9,1533.8c-2.4,0-4.3,1.9-4.3,4.3s1.9,4.3,4.3,4.3s4.3-1.9,4.3-4.3
				S1647.3,1533.8,1644.9,1533.8z"/>
		</g>
		<g>
			<path style="fill:#3E3D43;" d="M1644.9,1756.6c-13.4,0-24.3-10.9-24.3-24.3s10.9-24.3,24.3-24.3s24.3,10.9,24.3,24.3
				S1658.3,1756.6,1644.9,1756.6z M1644.9,1727.9c-2.4,0-4.3,1.9-4.3,4.3s1.9,4.3,4.3,4.3s4.3-1.9,4.3-4.3
				S1647.3,1727.9,1644.9,1727.9z"/>
		</g>
		<g>
			<path style="fill:#3E3D43;" d="M1644.9,1854.7c-13.4,0-24.3-10.9-24.3-24.3s10.9-24.3,24.3-24.3s24.3,10.9,24.3,24.3
				S1658.3,1854.7,1644.9,1854.7z M1644.9,1826.1c-2.4,0-4.3,1.9-4.3,4.3s1.9,4.3,4.3,4.3s4.3-1.9,4.3-4.3
				S1647.3,1826.1,1644.9,1826.1z"/>
		</g>
		<g>
			<path style="fill:#3E3D43;" d="M1644.9,1950.8c-13.4,0-24.3-10.9-24.3-24.3s10.9-24.3,24.3-24.3s24.3,10.9,24.3,24.3
				S1658.3,1950.8,1644.9,1950.8z M1644.9,1922.1c-2.4,0-4.3,1.9-4.3,4.3s1.9,4.3,4.3,4.3s4.3-1.9,4.3-4.3
				S1647.3,1922.1,1644.9,1922.1z"/>
		</g>
	</g>
	<g>
		<g>
			<path style="fill:#3E3D43;" d="M740.3,987.5H356.9c-28.1,0-51-22.9-51-51v-85.9c0-28.1,22.9-51,51-51h383.5c28.1,0,51,22.9,51,51
				v85.9C791.3,964.6,768.4,987.5,740.3,987.5z M356.9,819.5c-17.1,0-31,13.9-31,31v85.9c0,17.1,13.9,31,31,31h383.5
				c17.1,0,31-13.9,31-31v-85.9c0-17.1-13.9-31-31-31H356.9z"/>
		</g>
		<g>
			<path style="fill:#3E3D43;" d="M740.3,1193.8H356.9c-28.1,0-51-22.9-51-51v-85.9c0-28.1,22.9-51,51-51h383.5
				c28.1,0,51,22.9,51,51v85.9C791.3,1170.9,768.4,1193.8,740.3,1193.8z M356.9,1025.8c-17.1,0-31,13.9-31,31v85.9
				c0,17.1,13.9,31,31,31h383.5c17.1,0,31-13.9,31-31v-85.9c0-17.1-13.9-31-31-31H356.9z"/>
		</g>
		<g>
			<path style="fill:#3E3D43;" d="M743.9,1025.8H353.3c-5.5,0-10-4.5-10-10v-38.3c0-5.5,4.5-10,10-10h390.6c5.5,0,10,4.5,10,10v38.3
				C753.9,1021.4,749.4,1025.8,743.9,1025.8z M363.3,1005.8h370.6v-18.3H363.3V1005.8z"/>
		</g>
		<g>
			<path style="fill:#3E3D43;" d="M548.6,1308.2c-28,0-50.8-22.8-50.8-50.8c0-28,22.8-50.8,50.8-50.8c28,0,50.8,22.8,50.8,50.8
				C599.4,1285.4,576.6,1308.2,548.6,1308.2z M548.6,1226.5c-17,0-30.8,13.8-30.8,30.8s13.8,30.8,30.8,30.8s30.8-13.8,30.8-30.8
				S565.6,1226.5,548.6,1226.5z"/>
		</g>
		<g>
			<path style="fill:#3E3D43;" d="M548.6,1226.5c-5.5,0-10-4.5-10-10v-32.7c0-5.5,4.5-10,10-10s10,4.5,10,10v32.7
				C558.6,1222.1,554.1,1226.5,548.6,1226.5z"/>
		</g>
		<g>
			<path style="fill:#3E3D43;" d="M507.7,1267.4H327.4c-5.5,0-10-4.5-10-10s4.5-10,10-10h180.4c5.5,0,10,4.5,10,10
				S513.3,1267.4,507.7,1267.4z"/>
		</g>
		<g>
			<path style="fill:#3E3D43;" d="M769.8,1267.4H589.4c-5.5,0-10-4.5-10-10s4.5-10,10-10h180.4c5.5,0,10,4.5,10,10
				S775.3,1267.4,769.8,1267.4z"/>
		</g>
		<g>
			<path style="fill:#3E3D43;" d="M732.6,903.5h-76.4c-5.5,0-10-4.5-10-10s4.5-10,10-10h76.4c5.5,0,10,4.5,10,10
				S738.1,903.5,732.6,903.5z"/>
		</g>
		<g>
			<path style="fill:#3E3D43;" d="M732.6,1109.8h-76.4c-5.5,0-10-4.5-10-10s4.5-10,10-10h76.4c5.5,0,10,4.5,10,10
				S738.1,1109.8,732.6,1109.8z"/>
		</g>
		<g>
			<path style="fill:#3E3D43;" d="M396.3,903.5h-5.6c-5.5,0-10-4.5-10-10s4.5-10,10-10h5.6c5.5,0,10,4.5,10,10
				S401.9,903.5,396.3,903.5z"/>
		</g>
		<g>
			<path style="fill:#3E3D43;" d="M431.5,903.5H426c-5.5,0-10-4.5-10-10s4.5-10,10-10h5.6c5.5,0,10,4.5,10,10
				S437.1,903.5,431.5,903.5z"/>
		</g>
		<g>
			<path style="fill:#3E3D43;" d="M466.7,903.5h-5.6c-5.5,0-10-4.5-10-10s4.5-10,10-10h5.6c5.5,0,10,4.5,10,10
				S472.3,903.5,466.7,903.5z"/>
		</g>
		<g>
			<path style="fill:#3E3D43;" d="M393.6,1109.8H388c-5.5,0-10-4.5-10-10s4.5-10,10-10h5.6c5.5,0,10,4.5,10,10
				S399.1,1109.8,393.6,1109.8z"/>
		</g>
		<g>
			<path style="fill:#3E3D43;" d="M428.8,1109.8h-5.6c-5.5,0-10-4.5-10-10s4.5-10,10-10h5.6c5.5,0,10,4.5,10,10
				S434.3,1109.8,428.8,1109.8z"/>
		</g>
		<g>
			<path style="fill:#3E3D43;" d="M464,1109.8h-5.6c-5.5,0-10-4.5-10-10s4.5-10,10-10h5.6c5.5,0,10,4.5,10,10
				S469.5,1109.8,464,1109.8z"/>
		</g>
	</g>
	<g>
		<g>
			<path style="fill:#3E3D43;" d="M706,1752.5H394.9c-45.2,0-81.9-36.8-81.9-81.9c0-43.2,33.6-78.7,76-81.7
				c-0.8-5.4-1.3-11-1.3-16.5c0-59.7,48.6-108.2,108.2-108.2c47.7,0,89.7,31.6,103.5,76.4c2.8-0.4,5.6-0.6,8.4-0.6
				c29,0,53.1,21.1,57.8,48.7H706c45.2,0,81.9,36.8,81.9,81.9C787.9,1715.8,751.2,1752.5,706,1752.5z M394.9,1608.6
				c-34.2,0-61.9,27.8-61.9,61.9s27.8,62,61.9,62H706c34.2,0,61.9-27.8,61.9-61.9s-27.8-62-61.9-62h-49.5c-5.5,0-10-4.5-10-10
				c0-21.3-17.4-38.7-38.7-38.7c-4.2,0-8.4,0.7-12.4,2.1c-2.7,0.9-5.7,0.6-8.2-0.8s-4.2-3.9-4.8-6.7c-8.4-40.8-44.7-70.4-86.4-70.4
				c-48.7,0-88.2,39.6-88.2,88.2c0,8,1.1,16,3.2,23.6c0.8,3,0.2,6.2-1.7,8.7s-4.8,3.9-8,3.9H394.9z"/>
		</g>
		<g>
			<path style="fill:#3E3D43;" d="M550.5,1925.8c-5.5,0-10-4.5-10-10v-173.3c0-5.5,4.5-10,10-10s10,4.5,10,10v173.3
				C560.5,1921.3,556,1925.8,550.5,1925.8z"/>
		</g>
		<g>
			<path style="fill:#3E3D43;" d="M746.8,1925.8c-5.5,0-10-4.5-10-10v-66H360.3v66c0,5.5-4.5,10-10,10s-10-4.5-10-10v-76
				c0-5.5,4.5-10,10-10h396.5c5.5,0,10,4.5,10,10v76C756.8,1921.3,752.3,1925.8,746.8,1925.8z"/>
		</g>
		<g>
			<path style="fill:#3E3D43;" d="M585.1,2000.5h-69.3c-5.5,0-10-4.5-10-10v-69.3c0-5.5,4.5-10,10-10h69.3c5.5,0,10,4.5,10,10v69.3
				C595.1,1996,590.6,2000.5,585.1,2000.5z M525.8,1980.5h49.3v-49.3h-49.3V1980.5z"/>
		</g>
		<g>
			<path style="fill:#3E3D43;" d="M781.5,2000.5h-69.3c-5.5,0-10-4.5-10-10v-69.3c0-5.5,4.5-10,10-10h69.3c5.5,0,10,4.5,10,10v69.3
				C791.5,1996,787,2000.5,781.5,2000.5z M722.2,1980.5h49.3v-49.3h-49.3V1980.5z"/>
		</g>
		<g>
			<path style="fill:#3E3D43;" d="M385,2000.5h-69.3c-5.5,0-10-4.5-10-10v-69.3c0-5.5,4.5-10,10-10H385c5.5,0,10,4.5,10,10v69.3
				C395,1996,390.5,2000.5,385,2000.5z M325.7,1980.5H375v-49.3h-49.3V1980.5z"/>
		</g>
	</g>
	<g>
		<g>
			<path style="fill:#3E3D43;" d="M2220.9,1256.6c-57.2,0-110.9-22.3-151.3-62.7c-40.4-40.4-62.7-94.1-62.7-151.3
				s22.3-110.9,62.7-151.3c40.4-40.4,94.1-62.7,151.3-62.7s110.9,22.3,151.3,62.7c40.4,40.4,62.7,94.1,62.7,151.3
				s-22.3,110.9-62.7,151.3C2331.8,1234.4,2278.1,1256.6,2220.9,1256.6z M2220.9,848.7c-106.9,0-194,87-194,194
				c0,106.9,87,194,194,194c107,0,194-87,194-194C2414.9,935.7,2327.9,848.7,2220.9,848.7z"/>
		</g>
		<g>
			<path style="fill:#3E3D43;" d="M2156,1096.5c-8.2,0-17.2-3.4-25.5-9.9c-16.2-12.8-26.2-30.2-35.9-47.1c-4-7-7.8-13.6-12-19.8
				c-13.6-20.4-35.1-30.3-54.8-25.3c-5.4,1.4-10.8-1.9-12.2-7.2c-1.4-5.4,1.9-10.8,7.2-12.2c28-7.2,58,6,76.4,33.5
				c4.6,6.8,8.7,14,12.7,21c9.2,16,17.9,31,31,41.4c5.1,4,12.4,7.3,16.3,4.9c3.2-2,4.8-7.9,4.9-17.7c0-3.7,0-7.5-0.1-11.3
				c-0.2-14.4-0.4-29.3,2.6-44.1c4.6-22.9,16.6-41.2,33.1-50.4c7.8-4.3,15.9-6.4,23.8-8.4c6.5-1.7,12.6-3.2,17.9-5.9
				c12.1-6.1,21.5-19.3,25.9-36.1c4.2-16.3,3.7-34,3.3-51.1c-0.2-5.5,4.2-10.1,9.7-10.3c5.6-0.2,10.1,4.2,10.3,9.7
				c0.5,18.6,1.1,37.7-3.9,56.7c-5.8,22.4-19,40.2-36.2,48.9c-7.2,3.7-14.7,5.6-22,7.4c-7,1.8-13.5,3.4-19,6.5
				c-11.3,6.3-19.8,19.7-23.2,36.8c-2.5,12.8-2.4,26-2.2,39.9c0,3.8,0.1,7.7,0.1,11.6c0,11.1-1.6,26.9-14.5,34.7
				C2165.6,1095.3,2161,1096.5,2156,1096.5z"/>
		</g>
		<g>
			<path style="fill:#3E3D43;" d="M2129.7,1232.4c-1.2,0-2.5-0.2-3.7-0.7c-5.1-2.1-7.6-7.9-5.5-13c12.8-31.7,50.5-44.2,82.2-42.6
				c2.7,0.1,5.5,0.3,8.1,0.6c9.6,0.7,18.7,1.4,26.2-1.4c11.2-4.2,18.6-15.6,26.5-27.8c3.1-4.8,6.2-9.7,9.7-14.3
				c29.6-39,87.5-53.3,131.8-32.5c5,2.3,7.2,8.3,4.8,13.3c-2.3,5-8.3,7.1-13.3,4.8c-36.1-16.9-83.3-5.3-107.4,26.4
				c-3,4-5.9,8.4-8.9,13c-8.8,13.7-18.9,29.2-36.3,35.7c-11.7,4.4-24,3.4-34.8,2.6c-2.6-0.2-5.1-0.4-7.6-0.5
				c-34.2-1.7-56.1,13.9-62.7,30.1C2137.4,1230,2133.7,1232.4,2129.7,1232.4z"/>
		</g>
		<g>
			<path style="fill:#3E3D43;" d="M2413.9,1020.4c-0.3,0-0.7,0-1-0.1l-73-7.4c-5.4-0.5-15.3-1.5-21.5-9.4c-6.7-8.4-4.8-19-3.8-24.1
				c1.7-9.2,2.8-19,3.9-29.3c2.9-25.6,5.8-52,18.2-74.1c2.7-4.8,8.8-6.5,13.6-3.9c4.8,2.7,6.5,8.8,3.9,13.6
				c-10.4,18.6-13.1,43-15.8,66.6c-1.1,10.2-2.3,20.7-4.1,30.6c-1.1,6.1-0.5,7.7-0.2,8.1c0.6,0.8,3.3,1.4,7.9,1.9l73,7.4
				c5.5,0.6,9.5,5.5,8.9,11C2423.3,1016.5,2418.9,1020.4,2413.9,1020.4z"/>
		</g>
		<g>
			<circle style="fill:#FFFFFF;" cx="2330" cy="1151.6" r="76.4"/>
			<path style="fill:#3E3D43;" d="M2330,1238c-47.6,0-86.4-38.7-86.4-86.4c0-47.6,38.7-86.4,86.4-86.4s86.4,38.7,86.4,86.4
				C2416.3,1199.3,2377.6,1238,2330,1238z M2330,1085.3c-36.6,0-66.4,29.8-66.4,66.4s29.8,66.4,66.4,66.4s66.4-29.8,66.4-66.4
				S2366.6,1085.3,2330,1085.3z"/>
		</g>
		<g>
			<circle style="fill:#FFFFFF;" cx="2330" cy="1151.6" r="38.7"/>
			<path style="fill:#3E3D43;" d="M2330,1200.4c-26.9,0-48.7-21.9-48.7-48.7c0-26.9,21.9-48.7,48.7-48.7c26.9,0,48.7,21.9,48.7,48.7
				C2378.7,1178.5,2356.8,1200.4,2330,1200.4z M2330,1122.9c-15.8,0-28.7,12.9-28.7,28.7c0,15.8,12.9,28.7,28.7,28.7
				c15.8,0,28.7-12.9,28.7-28.7C2358.7,1135.8,2345.8,1122.9,2330,1122.9z"/>
		</g>
		<g>
			<path style="fill:#3E3D43;" d="M2458.7,1279.1c-2.6,0-5.1-1-7.1-2.9l-69.4-69.4c-3.9-3.9-3.9-10.2,0-14.1
				c3.9-3.9,10.2-3.9,14.1,0l69.4,69.4c3.9,3.9,3.9,10.2,0,14.1C2463.9,1278.1,2461.3,1279.1,2458.7,1279.1z"/>
		</g>
	</g>
	<g>
		<g>
			<path style="fill:#3E3D43;" d="M2474,1876.3h-472.3c-5.5,0-10-4.5-10-10v-349.8c0-5.5,4.5-10,10-10H2474c5.5,0,10,4.5,10,10
				v349.8C2484,1871.8,2479.5,1876.3,2474,1876.3z M2011.7,1856.3H2464v-329.8h-452.3V1856.3z"/>
		</g>
		<g>
			<path style="fill:#3E3D43;" d="M2474,1876.3h-472.3c-5.5,0-10-4.5-10-10v-58.6c0-5.5,4.5-10,10-10H2474c5.5,0,10,4.5,10,10v58.6
				C2484,1871.8,2479.5,1876.3,2474,1876.3z M2011.7,1856.3H2464v-38.6h-452.3V1856.3z"/>
		</g>
		<g>
			<path style="fill:#3E3D43;" d="M2286,1958h-96.2c-5.5,0-10-4.5-10-10v-81.7c0-5.5,4.5-10,10-10h96.2c5.5,0,10,4.5,10,10v81.7
				C2296,1953.5,2291.5,1958,2286,1958z M2199.7,1938h76.2v-61.7h-76.2V1938z"/>
		</g>
		<g>
			<path style="fill:#3E3D43;" d="M2352.4,1958h-229c-5.5,0-10-4.5-10-10s4.5-10,10-10h229c5.5,0,10,4.5,10,10
				S2357.9,1958,2352.4,1958z"/>
		</g>
		<g>
			<path style="fill:#3E3D43;" d="M2427.5,1775.1h-379.3c-5.5,0-10-4.5-10-10v-205.4c0-5.5,4.5-10,10-10h379.3c5.5,0,10,4.5,10,10
				v205.4C2437.5,1770.6,2433,1775.1,2427.5,1775.1z M2058.2,1755.1h359.3v-185.4h-359.3V1755.1z"/>
		</g>
		<g>
			<g>
				<path style="fill:#3E3D43;" d="M2295.8,1696.2c-2.6,0-5.1-1-7.1-2.9c-3.9-3.9-3.9-10.2,0-14.1l16.7-16.7l-16.7-16.7
					c-3.9-3.9-3.9-10.2,0-14.1c3.9-3.9,10.2-3.9,14.1,0l23.8,23.8c3.9,3.9,3.9,10.2,0,14.1l-23.8,23.8
					C2300.9,1695.2,2298.3,1696.2,2295.8,1696.2z"/>
			</g>
			<g>
				<path style="fill:#3E3D43;" d="M2180,1696.2c-2.6,0-5.1-1-7.1-2.9l-23.8-23.8c-3.9-3.9-3.9-10.2,0-14.1l23.8-23.8
					c3.9-3.9,10.2-3.9,14.1,0c3.9,3.9,3.9,10.2,0,14.1l-16.7,16.7l16.7,16.7c3.9,3.9,3.9,10.2,0,14.1
					C2185.1,1695.2,2182.5,1696.2,2180,1696.2z"/>
			</g>
			<g>
				<path style="fill:#3E3D43;" d="M2265.6,1672.4h-55.5c-5.5,0-10-4.5-10-10s4.5-10,10-10h55.5c5.5,0,10,4.5,10,10
					S2271.1,1672.4,2265.6,1672.4z"/>
			</g>
		</g>
	</g>
	<g>
		<g>
			<path style="fill:#3E3D43;" d="M1466.3,557.8h-173.6c-1.8,0-3.6-0.5-5.2-1.4c-25.8-15.6-47.5-37.6-62.6-63.8
				c-15.6-26.9-23.8-57.7-23.8-89c0-98.3,80-178.3,178.3-178.3c98.3,0,178.3,80,178.3,178.3c0,31.3-8.2,62.1-23.8,89
				c-15.1,26.1-36.7,48.2-62.6,63.8C1469.9,557.3,1468.1,557.8,1466.3,557.8z M1295.6,537.8h167.9c21.9-13.8,40.3-32.8,53.2-55.2
				c13.8-23.9,21.1-51.2,21.1-79c0-87.3-71-158.3-158.3-158.3s-158.3,71-158.3,158.3c0,27.8,7.3,55.1,21.1,79
				C1255.3,505,1273.6,524,1295.6,537.8z"/>
		</g>
		<g>
			<path style="fill:#3E3D43;" d="M1256.6,404c-5.5,0-10-4.5-10-10c0-69,56.1-125.1,125.1-125.1c5.5,0,10,4.5,10,10s-4.5,10-10,10
				c-58,0-105.1,47.2-105.1,105.1C1266.6,399.6,1262.1,404,1256.6,404z"/>
		</g>
		<g>
			<path style="fill:#3E3D43;" d="M1379.5,430.7c-21.6,0-39.2-17.6-39.2-39.2s17.6-39.2,39.2-39.2s39.2,17.6,39.2,39.2
				S1401.1,430.7,1379.5,430.7z M1379.5,372.3c-10.6,0-19.2,8.6-19.2,19.2s8.6,19.2,19.2,19.2s19.2-8.6,19.2-19.2
				S1390.1,372.3,1379.5,372.3z"/>
		</g>
		<g>
			<path style="fill:#3E3D43;" d="M1398.2,379c-2.6,0-5.1-1-7.1-2.9c-3.9-3.9-3.9-10.2,0-14.1l53.2-53.2c3.9-3.9,10.2-3.9,14.1,0
				c3.9,3.9,3.9,10.2,0,14.1l-53.2,53.2C1403.3,378.1,1400.7,379,1398.2,379z"/>
		</g>
		<g>
			<polygon style="fill:#FFFFFF;" points="1554.2,533.3 1554.2,446.5 1498.3,446.5 1498.3,533.3 1463.7,533.3 1526.2,617.2 
				1588.8,533.3 			"/>
			<path style="fill:#3E3D43;" d="M1526.2,627.2c-3.2,0-6.1-1.5-8-4l-62.5-84c-2.3-3-2.6-7.1-0.9-10.5c1.7-3.4,5.2-5.5,8.9-5.5h24.6
				v-76.7c0-5.5,4.5-10,10-10h55.9c5.5,0,10,4.5,10,10v76.7h24.6c3.8,0,7.2,2.1,8.9,5.5c1.7,3.4,1.3,7.4-0.9,10.5l-62.5,84
				C1532.4,625.7,1529.4,627.2,1526.2,627.2z M1483.6,543.3l42.6,57.2l42.6-57.2h-14.7c-5.5,0-10-4.5-10-10v-76.7h-35.9v76.7
				c0,5.5-4.5,10-10,10H1483.6z"/>
		</g>
	</g>
	<g>
		<g>
			<path style="fill:#3E3D43;" d="M1632.8,2565.3h-465.5c-5.5,0-10-4.5-10-10v-345.7c0-5.5,4.5-10,10-10h465.5c5.5,0,10,4.5,10,10
				v345.7C1642.8,2560.8,1638.3,2565.3,1632.8,2565.3z M1177.2,2545.3h445.5v-325.7h-445.5V2545.3z"/>
		</g>
		<g>
			<path style="fill:#3E3D43;" d="M1632.8,2288.6h-465.5c-5.5,0-10-4.5-10-10s4.5-10,10-10h465.5c5.5,0,10,4.5,10,10
				S1638.3,2288.6,1632.8,2288.6z"/>
		</g>
		<g>
			<path style="fill:#3E3D43;" d="M1203.3,2252.4h-5.6c-5.5,0-10-4.5-10-10s4.5-10,10-10h5.6c5.5,0,10,4.5,10,10
				S1208.8,2252.4,1203.3,2252.4z"/>
		</g>
		<g>
			<path style="fill:#3E3D43;" d="M1238.5,2252.4h-5.6c-5.5,0-10-4.5-10-10s4.5-10,10-10h5.6c5.5,0,10,4.5,10,10
				S1244,2252.4,1238.5,2252.4z"/>
		</g>
		<g>
			<path style="fill:#3E3D43;" d="M1273.7,2252.4h-5.6c-5.5,0-10-4.5-10-10s4.5-10,10-10h5.6c5.5,0,10,4.5,10,10
				S1279.2,2252.4,1273.7,2252.4z"/>
		</g>
		<g>
			<path style="fill:#3E3D43;" d="M1322.8,2520c-5.5,0-10-4.5-10-10v-181.8c0-5.5,4.5-10,10-10s10,4.5,10,10V2510
				C1332.8,2515.5,1328.3,2520,1322.8,2520z"/>
		</g>
		<g>
			<path style="fill:#3E3D43;" d="M1585.2,2439.6h-208.5c-5.5,0-10-4.5-10-10v-83.2c0-5.5,4.5-10,10-10h208.5c5.5,0,10,4.5,10,10
				v83.2C1595.2,2435.1,1590.8,2439.6,1585.2,2439.6z M1386.8,2419.6h188.5v-63.2h-188.5V2419.6z"/>
		</g>
		<g>
			<path style="fill:#3E3D43;" d="M1277.3,2344.4h-62.5c-5.5,0-10-4.5-10-10s4.5-10,10-10h62.5c5.5,0,10,4.5,10,10
				S1282.8,2344.4,1277.3,2344.4z"/>
		</g>
		<g>
			<path style="fill:#3E3D43;" d="M1277.3,2398h-62.5c-5.5,0-10-4.5-10-10s4.5-10,10-10h62.5c5.5,0,10,4.5,10,10
				S1282.8,2398,1277.3,2398z"/>
		</g>
		<g>
			<path style="fill:#3E3D43;" d="M1277.3,2451.6h-62.5c-5.5,0-10-4.5-10-10s4.5-10,10-10h62.5c5.5,0,10,4.5,10,10
				S1282.8,2451.6,1277.3,2451.6z"/>
		</g>
		<g>
			<path style="fill:#3E3D43;" d="M1277.3,2505.2h-62.5c-5.5,0-10-4.5-10-10s4.5-10,10-10h62.5c5.5,0,10,4.5,10,10
				S1282.8,2505.2,1277.3,2505.2z"/>
		</g>
	</g>
	<g>
		<g>
			<path style="fill:#3E3D43;" d="M781.3,609.1H315.8c-5.5,0-10-4.5-10-10V253.4c0-5.5,4.5-10,10-10h465.5c5.5,0,10,4.5,10,10v345.7
				C791.3,604.6,786.9,609.1,781.3,609.1z M325.8,589.1h445.5V263.4H325.8V589.1z"/>
		</g>
		<g>
			<path style="fill:#3E3D43;" d="M781.3,332.5H315.8c-5.5,0-10-4.5-10-10s4.5-10,10-10h465.5c5.5,0,10,4.5,10,10
				S786.9,332.5,781.3,332.5z"/>
		</g>
		<g>
			<path style="fill:#3E3D43;" d="M372.4,430.5c-2.6,0-5.1-1-7.1-2.9c-3.9-3.9-3.9-10.2,0-14.1l16.7-16.7L365.3,380
				c-3.9-3.9-3.9-10.2,0-14.1c3.9-3.9,10.2-3.9,14.1,0l23.8,23.8c1.9,1.9,2.9,4.4,2.9,7.1s-1.1,5.2-2.9,7.1l-23.8,23.8
				C377.5,429.5,374.9,430.5,372.4,430.5z"/>
		</g>
		<g>
			<path style="fill:#3E3D43;" d="M483.1,430.5h-55.5c-5.5,0-10-4.5-10-10s4.5-10,10-10h55.5c5.5,0,10,4.5,10,10
				S488.6,430.5,483.1,430.5z"/>
		</g>
		<g>
			<path style="fill:#3E3D43;" d="M351.9,296.3h-5.6c-5.5,0-10-4.5-10-10s4.5-10,10-10h5.6c5.5,0,10,4.5,10,10
				S357.4,296.3,351.9,296.3z"/>
		</g>
		<g>
			<path style="fill:#3E3D43;" d="M387.1,296.3h-5.6c-5.5,0-10-4.5-10-10s4.5-10,10-10h5.6c5.5,0,10,4.5,10,10
				S392.6,296.3,387.1,296.3z"/>
		</g>
		<g>
			<path style="fill:#3E3D43;" d="M422.3,296.3h-5.6c-5.5,0-10-4.5-10-10s4.5-10,10-10h5.6c5.5,0,10,4.5,10,10
				S427.8,296.3,422.3,296.3z"/>
		</g>
	</g>
	<g>
		<g>
			<g>
				<path style="fill:#3E3D43;" d="M701.8,2476.6H332.7c-5.5,0-10-4.5-10-10v-231c0-5.5,4.5-10,10-10h369.1c5.5,0,10,4.5,10,10v231
					C711.8,2472.1,707.4,2476.6,701.8,2476.6z M342.7,2456.6h349.1v-211H342.7V2456.6z"/>
			</g>
			<g>
				<path style="fill:#3E3D43;" d="M517.3,2385.2c-2.1,0-4.2-0.7-6-2l-184.5-139.6c-4.4-3.3-5.3-9.6-1.9-14c3.3-4.4,9.6-5.3,14-1.9
					l184.5,139.6c4.4,3.3,5.3,9.6,1.9,14C523.3,2383.8,520.3,2385.2,517.3,2385.2z"/>
			</g>
			<g>
				<path style="fill:#3E3D43;" d="M517.3,2385.2c-3,0-6-1.4-8-4c-3.3-4.4-2.5-10.7,1.9-14l184.5-139.6c4.4-3.3,10.7-2.5,14,1.9
					c3.3,4.4,2.5,10.7-1.9,14l-184.5,139.6C521.5,2384.6,519.4,2385.2,517.3,2385.2z"/>
			</g>
			<g>
				<path style="fill:#3E3D43;" d="M332.7,2476.6c-2.2,0-4.4-0.7-6.3-2.2c-4.3-3.5-5-9.8-1.5-14.1l115.3-143.8
					c3.5-4.3,9.8-5,14.1-1.5c4.3,3.5,5,9.8,1.5,14.1l-115.3,143.8C338.6,2475.3,335.7,2476.6,332.7,2476.6z"/>
			</g>
			<g>
				<path style="fill:#3E3D43;" d="M701.8,2476.6c-2.9,0-5.8-1.3-7.8-3.7l-115.3-143.8c-3.5-4.3-2.8-10.6,1.5-14.1
					c4.3-3.5,10.6-2.8,14.1,1.5l115.3,143.8c3.5,4.3,2.8,10.6-1.5,14.1C706.2,2475.9,704,2476.6,701.8,2476.6z"/>
			</g>
		</g>
		<g>
			<circle style="fill:#FFFFFF;" cx="701.8" cy="2466.6" r="62.6"/>
			<path style="fill:#3E3D43;" d="M701.8,2539.2c-40,0-72.6-32.6-72.6-72.6s32.6-72.6,72.6-72.6s72.6,32.6,72.6,72.6
				S741.8,2539.2,701.8,2539.2z M701.8,2414c-29,0-52.6,23.6-52.6,52.6c0,29,23.6,52.6,52.6,52.6s52.6-23.6,52.6-52.6
				C754.4,2437.6,730.8,2414,701.8,2414z"/>
		</g>
		<g>
			<path style="fill:#3E3D43;" d="M732.5,2476.6h-59c-5.5,0-10-4.5-10-10s4.5-10,10-10h59c5.5,0,10,4.5,10,10
				S738,2476.6,732.5,2476.6z"/>
		</g>
		<g>
			<path style="fill:#3E3D43;" d="M703,2506.1c-5.5,0-10-4.5-10-10v-59c0-5.5,4.5-10,10-10s10,4.5,10,10v59
				C713,2501.6,708.5,2506.1,703,2506.1z"/>
		</g>
	</g>
	<g>
		<g>
			<path style="fill:#3E3D43;" d="M2390.2,558c-5.5,0-10-4.5-10-10v-12.4c0-5.5,4.5-10,10-10s10,4.5,10,10V548
				C2400.2,553.5,2395.7,558,2390.2,558z"/>
		</g>
		<g>
			<g>
				<path style="fill:#3E3D43;" d="M2400.4,641.1h-320.6c-36.5,0-66.2-29.7-66.2-66.2v-66.1c0-36.5,29.7-66.2,66.2-66.2h320.6
					c36.5,0,66.2,29.7,66.2,66.2v66.1C2466.6,611.4,2436.9,641.1,2400.4,641.1z M2079.8,462.5c-25.5,0-46.2,20.7-46.2,46.2v66.1
					c0,25.5,20.7,46.2,46.2,46.2h320.6c25.5,0,46.2-20.7,46.2-46.2v-66.1c0-25.5-20.7-46.2-46.2-46.2H2079.8z"/>
			</g>
			<g>
				<path style="fill:#3E3D43;" d="M2121.5,462.5c-5.5,0-10-4.5-10-10v-94.3c0-5.5,4.5-10,10-10s10,4.5,10,10v94.3
					C2131.5,458.1,2127,462.5,2121.5,462.5z"/>
			</g>
			<g>
				<path style="fill:#3E3D43;" d="M2090,558c-5.5,0-10-4.5-10-10v-12.4c0-5.5,4.5-10,10-10s10,4.5,10,10V548
					C2100,553.5,2095.5,558,2090,558z"/>
			</g>
			<g>
				<path style="fill:#3E3D43;" d="M2321.7,558c-5.5,0-10-4.5-10-10v-12.4c0-5.5,4.5-10,10-10s10,4.5,10,10V548
					C2331.7,553.5,2327.2,558,2321.7,558z"/>
			</g>
			<g>
				<path style="fill:#3E3D43;" d="M2355.9,558c-5.5,0-10-4.5-10-10v-12.4c0-5.5,4.5-10,10-10s10,4.5,10,10V548
					C2365.9,553.5,2361.4,558,2355.9,558z"/>
			</g>
			<g>
				<path style="fill:#3E3D43;" d="M2223.9,333.8c-5.5,0-10-4.5-10-10c0-50.9-41.4-92.4-92.4-92.4s-92.4,41.4-92.4,92.4
					c0,5.5-4.5,10-10,10s-10-4.5-10-10c0-62,50.4-112.4,112.4-112.4s112.4,50.4,112.4,112.4C2233.9,329.3,2229.4,333.8,2223.9,333.8
					z"/>
			</g>
			<g>
				<path style="fill:#3E3D43;" d="M2170.5,340.6c-5.5,0-10-4.5-10-10c0-21.5-17.5-39-39-39s-39,17.5-39,39c0,5.5-4.5,10-10,10
					s-10-4.5-10-10c0-32.5,26.5-59,59-59c32.5,0,59,26.5,59,59C2180.5,336.2,2176,340.6,2170.5,340.6z"/>
			</g>
		</g>
	</g>
	<g>
		<g>
			<path style="fill:#3E3D43;" d="M2484.3,2588.6h-492.9c-5.5,0-10-4.5-10-10v-114.9c0-5.5,4.5-10,10-10h492.9c5.5,0,10,4.5,10,10
				v114.9C2494.3,2584.1,2489.8,2588.6,2484.3,2588.6z M2001.4,2568.6h472.9v-94.9h-472.9V2568.6z"/>
		</g>
		<g>
			<path style="fill:#3E3D43;" d="M2484.3,2471.3h-492.9c-3.1,0-6.1-1.5-8-4s-2.5-5.8-1.6-8.8l80-275.1c1.2-4.3,5.2-7.2,9.6-7.2
				h332.9c4.4,0,8.4,2.9,9.6,7.2l80,275.1c0.9,3,0.3,6.3-1.6,8.8S2487.5,2471.3,2484.3,2471.3z M2004.7,2451.3H2471l-74.2-255.1
				h-317.9L2004.7,2451.3z"/>
		</g>
		<g>
			<path style="fill:#3E3D43;" d="M2378.3,2412.2h-280.8c-3,0-5.9-1.4-7.8-3.8s-2.6-5.5-1.9-8.5l35.6-156.7c1-4.6,5.1-7.8,9.8-7.8
				h209.7c4.7,0,8.7,3.2,9.8,7.8l35.6,156.7c0.7,3,0,6.1-1.9,8.5S2381.3,2412.2,2378.3,2412.2z M2110,2392.2h255.8l-31-136.7H2141
				L2110,2392.2z"/>
		</g>
		<g>
			<path style="fill:#3E3D43;" d="M2116.5,2531.1h-87.7c-5.5,0-10-4.5-10-10s4.5-10,10-10h87.7c5.5,0,10,4.5,10,10
				S2122,2531.1,2116.5,2531.1z"/>
		</g>
		<g>
			<path style="fill:#3E3D43;" d="M2378.3,2531.1h-17.8c-5.5,0-10-4.5-10-10s4.5-10,10-10h17.8c5.5,0,10,4.5,10,10
				S2383.8,2531.1,2378.3,2531.1z"/>
		</g>
		<g>
			<path style="fill:#3E3D43;" d="M2426.2,2531.1h-17.8c-5.5,0-10-4.5-10-10s4.5-10,10-10h17.8c5.5,0,10,4.5,10,10
				S2431.7,2531.1,2426.2,2531.1z"/>
		</g>
	</g>
</g>
</svg>
